<mxfile host="app.diagrams.net" modified="2020-05-24T03:12:45.653Z" agent="5.0 (Windows NT 10.0; Win64; x64) AppleWebKit/537.36 (KHTML, like Gecko) Chrome/81.0.4044.138 Safari/537.36" etag="__UWX2zpW_reVIsPOEZU" version="13.1.3" type="github">
  <diagram id="91B_SyPcyuFiKoX55tqD" name="Page-1">
    <mxGraphModel dx="868" dy="450" grid="1" gridSize="10" guides="1" tooltips="1" connect="1" arrows="1" fold="1" page="1" pageScale="1" pageWidth="850" pageHeight="1100" math="0" shadow="0">
      <root>
        <mxCell id="0" />
        <mxCell id="1" parent="0" />
        <mxCell id="aaeq4ovQwz0Z_cj152pu-1" value="" style="shape=image;html=1;verticalAlign=top;verticalLabelPosition=bottom;labelBackgroundColor=#ffffff;imageAspect=0;aspect=fixed;image=https://cdn3.iconfinder.com/data/icons/avatar-55/64/Female-engineer-avatar-occupation-profession-woman-128.png" parent="1" vertex="1">
          <mxGeometry x="90" y="240" width="128" height="128" as="geometry" />
        </mxCell>
        <mxCell id="aaeq4ovQwz0Z_cj152pu-2" value="" style="verticalLabelPosition=bottom;html=1;verticalAlign=top;align=center;strokeColor=none;fillColor=#00BEF2;shape=mxgraph.azure.visual_studio_online;" parent="1" vertex="1">
          <mxGeometry x="30" y="140" width="50" height="37.5" as="geometry" />
        </mxCell>
        <mxCell id="aaeq4ovQwz0Z_cj152pu-3" value="" style="aspect=fixed;html=1;points=[];align=center;image;fontSize=12;image=img/lib/mscae/Azure_Repos.svg;" parent="1" vertex="1">
          <mxGeometry x="80" y="200" width="45" height="50" as="geometry" />
        </mxCell>
        <mxCell id="aaeq4ovQwz0Z_cj152pu-4" value="" style="aspect=fixed;html=1;points=[];align=center;image;fontSize=12;image=img/lib/mscae/Azure_Repos.svg;" parent="1" vertex="1">
          <mxGeometry x="80" y="40" width="45" height="50" as="geometry" />
        </mxCell>
        <mxCell id="aaeq4ovQwz0Z_cj152pu-5" value="Visual Studio" style="rounded=0;whiteSpace=wrap;html=1;" parent="1" vertex="1">
          <mxGeometry x="40" y="200" width="120" height="60" as="geometry" />
        </mxCell>
        <mxCell id="aaeq4ovQwz0Z_cj152pu-6" value="Engineer" style="rounded=0;whiteSpace=wrap;html=1;" parent="1" vertex="1">
          <mxGeometry x="5" y="300" width="120" height="60" as="geometry" />
        </mxCell>
        <mxCell id="aaeq4ovQwz0Z_cj152pu-7" value="Azure Repos" style="rounded=0;whiteSpace=wrap;html=1;" parent="1" vertex="1">
          <mxGeometry x="60" y="80" width="120" height="60" as="geometry" />
        </mxCell>
        <mxCell id="aaeq4ovQwz0Z_cj152pu-8" value="" style="aspect=fixed;html=1;points=[];align=center;image;fontSize=12;image=img/lib/mscae/Azure_Pipelines	.svg;" parent="1" vertex="1">
          <mxGeometry x="160" y="40" width="50" height="50" as="geometry" />
        </mxCell>
        <mxCell id="aaeq4ovQwz0Z_cj152pu-9" value="Azure DevOps Pipeline" style="rounded=0;whiteSpace=wrap;html=1;" parent="1" vertex="1">
          <mxGeometry x="50" y="200" width="120" height="60" as="geometry" />
        </mxCell>
        <mxCell id="aaeq4ovQwz0Z_cj152pu-10" value="" style="shape=image;html=1;verticalAlign=top;verticalLabelPosition=bottom;labelBackgroundColor=#ffffff;imageAspect=0;aspect=fixed;image=https://cdn0.iconfinder.com/data/icons/internet-line/512/Internet_Line-02-128.png" parent="1" vertex="1">
          <mxGeometry x="82" y="368" width="128" height="128" as="geometry" />
        </mxCell>
        <mxCell id="aaeq4ovQwz0Z_cj152pu-11" value="Azure Web Apps" style="rounded=0;whiteSpace=wrap;html=1;" parent="1" vertex="1">
          <mxGeometry x="50" y="460" width="120" height="60" as="geometry" />
        </mxCell>
        <mxCell id="aaeq4ovQwz0Z_cj152pu-12" value="" style="shape=image;html=1;verticalAlign=top;verticalLabelPosition=bottom;labelBackgroundColor=#ffffff;imageAspect=0;aspect=fixed;image=https://cdn3.iconfinder.com/data/icons/social-networks-29/250/windows-128.png" parent="1" vertex="1">
          <mxGeometry x="350" y="200" width="128" height="128" as="geometry" />
        </mxCell>
        <mxCell id="aaeq4ovQwz0Z_cj152pu-13" value="Azure Application Insights&lt;br&gt;" style="rounded=0;whiteSpace=wrap;html=1;" parent="1" vertex="1">
          <mxGeometry x="365" y="308" width="120" height="60" as="geometry" />
        </mxCell>
        <mxCell id="aaeq4ovQwz0Z_cj152pu-15" value="Jenkins&lt;br&gt;" style="rounded=0;whiteSpace=wrap;html=1;" parent="1" vertex="1">
          <mxGeometry x="320" y="160" width="120" height="60" as="geometry" />
        </mxCell>
        <mxCell id="aaeq4ovQwz0Z_cj152pu-17" value="" style="shape=image;verticalLabelPosition=bottom;labelBackgroundColor=#ffffff;verticalAlign=top;aspect=fixed;imageAspect=0;image=data:image/png,iVBORw0KGgoAAAANSUhEUgAAAEIAAAAxCAYAAABu4n+HAAAcH0lEQVRoBe2aiZtddZnnf3c5+3L3pe69dW/tS1LZKlWVyloJWSAIZEFCAoGgCVGBZnECrYIICrLIGiQwMo1269i2NmiLjjo87TzIOLYKtjpNYyto2y2KKLIEEsjCZ573d+rcSkD7H+i5z/M+59Z26/w+5/suv9/7KoDHH/sBGzacjudmSSWttqVTNum0qc0wLNqWdjAND9MIMFIh6WR0tYwsjpXHc4rYZg7LDDHSPumUoz9TPk8+wzRNUqkUqVSCVMqI/kfK0b8nvy+WTDjTZpFMiJkkk+m2pZRDOuFjpkJtRtIjnXBJKpuEskgoY9rSJJXRNs8J2bhhM48//rgsvf1Sjz/+A1wnQ0KZ2uQfHgtDbrR9s2kzgpGObjqVlH/saUslfA1FYGgIRhYznSGd8kglbb0Yuc7AsDUQ07SxTA/L9LGtTNvk8+TzI7Nn7mn6fmTBKeVpEyACRiwGkVIW2mQ905ZOWsTmecFxMNTGDadrAEoTFBhGRF+ewDF2LBxZTATORimHhHK1yc2nkxmMlEDI6auoRS9qemECRhQSmYBxtAJEBQIuNvkMUVukEBcjLb/ntB9EpABfq0JAiBnJADMlKpH3zvEmajzGRF0bN26aUYSoQSDENiOpWFrHg4mACIjYjldFDMI2C1hGZGY63wYTLfCYRYq0NYCc/p34b6JrHlGYuJgoRivHcvTVtbI4Zg5bfp7O6Kt87dk5ArdwPASBIm5+jCIEhKgifqnYJf6ja+Sjka+KvCOLZBvHB1GAZciNR4t37TKuVW2bY3YgZhtVbZ5TQcx3q5E5NQK33jbHrOBYJRyrqOOOY4c4doDjePrq2QVcs4hjFCLTEAoaQugVEcVEqrFJJ8SNIldpx4vpeHMcCFlo7MfyXqAcu/j45zEEkbcEyjgeSIB07dK0lREInt2B7zSmrYlvt/CsJq7ZwjEauJZYDc+ua/OdJsdaBO5PwBAoZk4DsNN5tEmgNnO4ci9Wtg1CXCQGkZR16RAwE3TbICQO6Oww7bcxkJlANf3ktW97kc+mQg1BnpYA8N0KgVfVJk9YnrSoQRYpAAKnB9/uxbN6cNI92KluzGQdM9mBlWpMWxM73cJOd2oTWI5Z1yo6XhlZHDtadKyGtjKOcRUrHSAWxQvJKG9SxZsVIT4fBSIJSK4OXrH0o8AmwW0GgA5gKckMBS1bzylrAKHfgVjgdWipi7TlqYsKBIJv9eMa/djJPqxEr4ahF57q1nCcdB9irtGrzTG6cIymVs9b1VHEs0r4dpnAqbRNvhfHDa0YU2JHOA3E1XFDgIjF6fg4RcQBMIrk0cIlG0hqlBggwUxSYhQAo8AnT0kWHfo18tmmVoZAKeSapBIZ0ok8odekWpxNQlXxzD48c4BCsICEamEmujETLaykKKQXU/WQVl0kVROlGvjWoIYXKakrciurpt1Jxx6zhGuW8KyytrYqjEI7cEZQYhCSSaJaQ6tD6qWUEXNAzaTFKJXFKohSYVwo5dsKiGRamo4BUYDLhg0Eglg2rOvoL99LqiwpVUKpkl5UWrXIunO1GUpAdOOk+vGMYXxzFr45gmfMxk3PwkkNYicHtIIElKin7UbpDlxR3DSM6Fp8S/CM1XG8i7iRm/wpEDO5PXKDOJ9H2aCALRHamgEggTBwO8lnuijmuzQAASGuk1SBrickg+Qz8qQrZLyB6YUPolQTASEu4qaHNITQnktozdcWmPPw0nPx0nM0GAEV2aBWlcQa13grjEgdopJSO5PE6XWmvpBsElW6b1FEHCwlRsQlrs7fhrhBZFZa/K+Cr9NcJ6HXRcbvpqM8TKXYT6nQrd1DXErcSdxKKU8rJ6nyOmAq1RFJ3hzSriDxQp68qEAW7abm4CRHsBNz8NML8Y0FBOYogSmAFmhIGWceGXcWrlF/iyoEhMQNMQmkcTaJYMwUW2ZKYmG0fYh9Q0UQbB0oYxCSGqMyeRpEqoiVluBX0+lQIBQyA2S8PirFYR0LJFbI3yhl0WoO6GsYlGg2hlEqRKm8dpFCZhal7FytDlGEgBBXcFMjEQQ1D0vNxVYLtDmJUdzkQrzUmIYTGGME1hx8q4kndYp2kchNIhASPKsRBEmtUvJPmxRekQV/HEScNeKNVBQcxR0KWgWiBJ0KnYZetCihWpyjQQgQpbIk1XSFaASsW/s2fviPT7Bm9XpdgosyersWtmFI8DRUUwdKNz2gY0PkFgsJzXECYxInMYabmMBLLsJPTRIaS8iYS8naS8m5Y2ScXkK33obhGBIjouDp25U/CiIGIplE1iwbyvilIghSx7vtHaWAkPpAfF6qvdBrkA26tOXCXnJBH+W8gBjQQBKqoEFIfBCYZ245G96A1w4e4aEv/09mDQkEUUWWUm5Iu4nUEpJOfXMIiQ8ZewEZe4zQXKRBRACWEBrLyJjLydlTFNxVlPzVlMIl5P0hsn4ngVPTqnAMcYdyG0a70JouuKJ0mosKMTPT3rccAyKqH8QddLWYymmaIq+M1yDnd1HM9FLKDmgrZiQFDpL1hsm4Q/Q0F+mKUCpJCawSIzZtPlM48OqB1/T1+T+8zL3/9X4K+Zr+uZkqEjpdZOxBsvYcMs4cQntEK8NOjGGpMazEgkgVahlBYopMegUFcwUlaw1lZxUld5yCM5uM1cKXLJKSUltUUcEza9ipChLX7LSoWgBkcMygfY0F0AYR/UJOpx7JxYFZ1Za1O8lYTbJ2FwW3n2owm1pmDvXsfDoyC+gsLSGQoJfs1EVPGLSmn3rI5refxxHgwKHDvHpoP0c4wKuHn+eTn76bW26/DqUUpsroz7RUH15qSFegrtVDSo2i1DyGB0/hmis/TclZT09hK45aQN1eSa+/kXrqVPqDM6mZa8klZ5NLy31W8M08diqqVqUwc8xu7dp6e2+72LaNbbt6r2JbAWLxSwktAeAbpQiCUSM0Oym6vRScPgr2AGVvmHowl2Z2Ac3sQuqZhbSKy/RTFIlLBZjL9JNKlLGdTjafsZvDwMEj8OLBFznMAY7wEp/+/L0889uf8m///nPO3HAutuqg5M2nVhjTGaaQ70GpQe679zscOgTf+vunSasJArWWoppiOLuZltrMLHs3izs+wKxwJzVjOUWjj7xVJZSMYTUJHclEwzhmP7ZVwbIDLMvQJiBsa+bsYwaEEe3iArOsQYRmXYOoBAOU/UENoRrMoTMzSis3RjM7pkGUw4V4xqAOekoqR6cb22xi2z0sX34GR47Cy6/A4TfQUF545UU+/8W/4Q2OcvDAYd44AE8+9hyDnStJqBKNeheXXnYFL/0B3hCKR+EbDz1OqJbT5WyjM7mJmtpIUW1lafEG1rTuYLT0Xnrdt9FwR6n6PRTcOlmrh8CW2mRIV7N6xysHPqYVmeHrsjs+BHoTiEgNAkHcQfyuGg5T8WdR9mYTgxA1xCAK/lwd7MyUPMUOjKTIsB+lWtRri/nsZ7/FkSO0gYirfO4LX2b//sO8IV8chmd/cQRehw9ddTtPPvlEtPojcOhV4BA8+o0fU02uZsg7n1n2uxhSlzJu3MKKzH2srNzDguyVDHpb6M+spKcwn3qmn6zVh5vqI7SGoxLdquvdqG06uIaDk8rgpKKgKTDil4rTTmh1kLEaZO0WOadbgxCXEBAVfy6NcFRD6AzHqYWjlLLz8Z0BAmcWadWLZ86lEC7CUEP41jyMxAArl+3goS/+UD/h1w7Ax/f+NUcOwxtH4fXpxQqQ//GVb+mVP/PM00hwOfQyHH3pKP/87WcYCbcyVbuWEyq3Mmnv5byh77Oh+k3WlD/PwuCj9Fvn0Oevo6+wiO7CHP3Qiu4IBWeErDOExLrAKuCZPl7ax0sWcFPTm7NpEA888BQahBQmooYYQt7pa6uh7MmHz6NT4kJunGZmQrtGMTMH2+gjsOdjJ+cTmIup5dcSGBO68JEU5yTnolQ/u3fcyM9/coRvP/KUXqiA0NH0CPz2169z91338/vf/SbyiUPw+u+A/fCjr/2GydxFnNZ9L5s7/4bVzhf4s5Fn2TXwS7YOfIep8icYNHbRTK2jyxujpzBKX3kRfR1LqfqjlPzZFLwusm6Z0MwRGHn8VBUvWYkqz2kQH/vYYwJCdm/Vthrybg8xiIo/otXQEc7XELrzi+nOL6WZn9SKSKpupPIz1QSumqIWnkbBPoGsuZSSvZxmfg1eYoKCs5SE6mGkfw3/+tTvtP8fPgwHDsCh1+DrogiBIxCejSDwAnz51qeZMN7HZOIOTi99nQsGnubi/pd4V+9zvGfhLzi56/OMWBfTVCfRaY3TnR2lv7SY/toy6plxOsK5lIMeCl6NvFUia5TIJBsEqcZ/DCLndCEg4nQpsUHUUM+O0l1YRF9pGX2lFXSXltJZWUxaDeImlmCrVTjqJOreFjrsU+hwTsRTCxmubMJXk7Sy6ynZE6xddjZf/tuv8xf33c/+V6Ia4+hh+Kv7HoDX4PVfAb+FF74Hl675NKd37ePtHX/NxsxDnB4+yhUjL7Gz9Bv2zDnIxeO/YkPPl1jgX06vcSpdziJa4Xw6gwVavY3shL7vajhA0WtQsKvkzAq5ZEvDkJAQx4hpRURFiLiGgCh4vRS9ATrCEU1UIDRyC+nKT2gYPYUlGkQ1P4FvjmKoFbjqNIpqOx1JsY3U0yczGG4kq5ZSUSfR7W+gkBjntJXv4PUXDnL00H4+fs8d/O//822ef24/X3vgH+BlePHHcOuub7GmcCNntR5gW+VrnJn/e87OfY/d1ae5rOd5Lh94hUsGn2PXyBOcWP8MI/ZFdKfW0+WM05WZR1d2TN9rV3EJreIEjfwsKmFLg8imq+RTXeQNOQkr6JMuCZavvPJKFCOkRpdgKYEl73ZrGJI1BEYtEylCUqfA6ClO0lWc1AVVzlmCq9aTUdsoq3dRVTupqs10qJNpqVNoqdMYMM+m19xKVa3ibYt3wqtw5OBLiAQeeeR/8eDnvsJ1e+7jlksf5vRZexlTV7Oj62ucVfgOu8o/4+LmL7m8/zk+OHKQa+Yd4qqRl7h0+BdctvRfWFO/j/7kufSa6+jLTNDwh6m5c2nmJ2jml+hrIz+bSthN0enQisimOskYciyYb4MQGEp/wyggdUTGrpFzmhpG2e+nEgzp6k98rTMjcUJgjNMsjNNdWULVX0FRnUFNXUiPeh/dag9d6p201JlU1ckMqO30qZ10qR2M+O/grFVXwkEJlNMBQerw1+GTN36TM+btZcfsv2NH62HOLX6X3YXfcnnnUT48AjePw22L4fblcNPSl/jg4qfYs+oxpjpu1LB7vSmGSuNU3V6K5iCduXHqmUXUcxPURBHZKE5krDJBqq5N70WOTZ+yE5Pq0jeLhFaFrCMu0qTo9lDy+nRRJfVEPRyhEc6bri4X0F2eoBFO0bLPY9j9EGP+HYy7tzLmXMWE817GjEtY6l3JoPov9Ks9TJU+wtbxG0DE8Ac48HuptqT8hK/e+1PGrKvZUHyQdzS+wzuyT3JVF9wwBLcthNvG4Y7FcPda2Hfyy9xyys/ZPvdzTBTfSzO9mp5gjN7ibDp8ue9+atmFVPwJKpkJarkRDSLvS0Io4qfKeOlytB03w7iMQFlpT1danjEDQytD3ET2GY4AGaDqDVILZkdAMnPoKYk/LmfAP5+x7M1M5T/FCblPsTp7O2tyN7MmvJlTS/+NFcn7OTn3IO+c8zAXTn0J4qzwGhx+HvgdPPqpF1lf/AS7uv+B98/+BTeNHuWmIbhzLuxdCLcuPMjtiw+x78TX2HfqM9xw8veZzFzOSPYs+oKltIJBGtkGnYUmHblhisE8it4ExWCCcnaEYrabbFAlsHJ4Ukmn8xqEbDLjlwYhMNx0iMAILIkXFTJmB1mrQc5qaRhlp1fD6PCHqAWDtAqDtDITDHvnMxF+jKnMX7La/++s8faxLtjLUnUzG7N/y0b/UXb1PMXuWU/y7oWP8JMHo8zAK7I9jdTx8F2/59z+r3DL6pe5afJ53t98lluGYO9cuGsMbp94mbumDrJv/Utct/z77Jp9P71qM73+GvrzozTCOh3ZAo1Sg3phFjlvDnlvnII/gdQ7ubAbafq40iDSu9Bc1MBO+zEHlJl2kKMrZxqG7OC0mxhlQqNKRrKJ1aJk9yAwKm6fruvrmU4a3jwGjO2M2h9lif1JVqQ/wyrjXtaZ93Ky9VecXXqULd5P2FH+Had6P2J9+HV2j/0dH9n+VV78Z+A5kHrhe/fDny9+jCsX/JwPDD7J3onXuXM23D0P9o4f5M7JZ9m3ej93rv01Fw4+yBLjEvpSJ9Nyx+kMu+nMl+ks5akWSxTCPrJSWfqT5IMJcuFswqBTd/rjDZe0OUUNclAdv9ogjneRCEa8I5XSO3KTbh07Kn4nZa9AxW7RZZzMHPsyJuzbWGrcw0rzXtZZn+Ls8jfZ1XiSrf6/ckHn6+xuvMCeeb/n9MIX2VS/h2X5PXzppn+Dp+Hbt8JV4//Ch+b9mg/P+iWfWAH7xuHuCbht4nlumvwZd6x7ho+ufYKtzXtoqQ3MzZ9K3R2hZHfQKtfpqjUoZkoEdoOcO0whWKhbB7lgQLcdXCvEsVytCt8VEFGXfgaEIS35UBcX+jp9vicnwVETpYIcffl2hz4NkhOhjFMi79oUnYCqNUjLWs2wvZNF/jWsLXyCjcUvcX7Pj9jZ+Ck7S//OzsKveVfpV7yn8nMuqD3BuxvfYWfzG7yn72GuGvsn7lz9AnetOMr1Iwe4fmg/ty54g7uWwPWjr3Dt5C+58aSnueakx9k+5y8ZDy6moU6i4SyiFgxTCwd0epRaQawc9lIO+3Xmk6AvZYGo3DV8nLSLnRKTA+ZoDqQNQrfjp0+n9ClVWtr64TF9DDnGF/+Keppy9Z08+cCl5AeUnRplY5hGchUjzk5WV29hS++DnNX8Jts7vsv24j9yTvbHvCPzBOfnfsJF5Z9xScdT7On9pbb39f+Gqwdf4JrBV7lh9iHuWQqfPQ1unHiZ29a8wN1nPMd1G3/A1rkfZ9g6mw61mpa3kpo/n2o4iBwXVIJ+yn6fLqdLfouS30neqenDmtAs4MvRY8rDSbraLJnTeHNfI27nCQR9lD89ARN1tqW7HTV34r6G9Dak0Zpxc+S9AiWnk3yqh6KaR1dqHeO5d7O+eQNbBz7NjoGH2DnwCOf3fJfzG99nV8cP2F37J95d/xlXDP2Ba0eP8rHFcOsSuGUR3DIJH5s8xA2Tv2ffqS9z3er/y4VjX+C0nmuZG7ydqppPJTVEd34eHb4AkDOTfkpSDeutQYu809AQMmaF0Czhp3O4yQA74WizlI2ZiAZGjutrxIoQt4gVIYe3MQg5yY4savBoEGYJO5EjNMoU7SZFq5tiqp9yYoRmchkDximMZ3axunwlm7vvYXvfFzin+6tsbzzM9vojnFt/nIuHnuOKOQe4YmQ/lw8/zzUL97N33RvsO+V1bln3K65e+V22dO1ljjqbTrWMljFKT3YWzXyTRr6TctClVSAQCq4AaJK1ajrbCYTAKM5AUB4agLIwlYWhTNLJaBKo7RrRyE4QdZjtbHt0J+p15rRbRDMKUedbn25bVWxVxU3WCNMNDUOUUbTq5FWNjKpTVMP0pFcylt/B2voH2dSzj22Dn2fXgm9y0fiP+PPlz3H1qgNcPfUiH1jya65f8yx3bHqOj6z7Me+e/wATqYuYpd5Oj5qi2x6lNzdMq9Sko5ijmM1QCOrkXTk7kfPKTn2MIOetEuDjWkEOYeykj6lcDA0ggvBHQcgBpgxhuE5Om265CxA5+bXybRAz8w/iGlV8swcv2cJJVPFTRfJuibJfpOhkyBkZsskC5VQ3ncY4g+4pLMjtZlXntWwe+QvOnXiI3Yse5dIVP2LPyh9y6Ypvc9Hir3PevM+wIvN+OtRJtNQammqJVkJXMExnvodqoYN8LkMmCMm6Vb0lkGAYAajgpYu6WHLTWcScVICV8DAT9nEgZKbqLYqIQUQTKVH2kO2puIq26eEw3ezR0ytFfTIc2n14hrT0a/oJBHZI1vfIB44237TxEj6WKmCpJq6aR16dQMM4g17nPAbt6PhNNk11tYGaOpEutY7uxAl0qklG8ifQ7Y1SSPYRJqKyv5DtJhM2okEUae8ZpUgB6eIxEPIawptBRDDMdnx4CwjJp7F7CJQYQNwDjZvBccyIrgWcdF2fGGfcJqEeDpFMY2GZSWwrSS7rkwmyhHZRHwaH6QEy6bmEyVFCNY6j5pBXC6mnJ+lIjVJSw1Eg9OcwWJxPwx+gMzNEIztE0e8lsFv6cDidbpBOVnUzJ3aBSAEzAKRKFpMiUdKllXQ0AAmSYjJPJYHyuGA5MxYQz1dGM1I6cMZNH1GHDG0dow7JItLvlGkZ3y1pgDJgIkNp0jyRq+9FDZ9SoWum01UYwtYtg7o+MpPYEqYKFJwipjLImSElr0CYDjCmRwgFtlLSWZ+FUnUcpxdpEh3by4x7mtGkjKerZT0QMj0uFI8YJlQaMaWS2trB8k+BiBURZ5UZZURABJTvFXSzV0BIQJWG70UXvI+1qzex/qQtbNy4nf7+eWzatI3hkQVsP28nC8Yn8IMMi8aX0NPZy8qlU5yz7Sx82+D0jW9j6xkbSSnFedu3MWtomOXLVul4VSkP4Ltd5HKzNRQ9wphyp8cJj73K+8j0QIiOBxaylbAMV1+lhkgkUtpmQExL5E8BkVkqqTXiekOKLYEj5Wo+KyAMAq+MUr7ubV72Z9fphs87z7uCgb7FnLllF8Vig90XvIf1p53EjvO3oZKKO++4m1mD89m65WzKxQoXvOddNDurXHTRLpYvX8hZZ21m+zlncPWHPsCCBfP44FXXsnHTFnK5um4bRuNN0RBcdO/HDKVOj0PFa5KOv4wmylSeNHfkfTzF2wYRf+PY4VJ5H48bxqPA7eEyPTgqM5YK15FxYptMWNZDJNL63771Mt3+v+p9dzI2eiLbzjyfCy68lNGxhVx59eVcf9OVrFw9yaWX7OGKPR/iw9fewPjYYi655BJUQtFsdbDjvK3cdffNrH/bSt6582wuvGgXF1y4m6mp5bpd6PtheyHxLNSb7193uyUWyGzlNIgYgvwsXncbhAxdxt/U1+lpW3nSYm8GEoGxSCWSpJIKIxVN6+YzNYxEluWTp1AIezjxhC0awiknbSGfq7Bt2zbWnXgCs2b3snPXufqzN562jYmxKZ22/SDHhz9yPdvPPQfDSrJgdIQd553F1NQiEglFR0eO1SsXa7eRhyD/P5kUk1HB+DozNigPSNr+cVCMZ8oFjAzVSoyQmc34pTZs2NT2F+0308PcbwYhk7axOmTu0rGkXk8hHSQJPp4t89zyTxwdxGT6VcZ1UtNzjSmV1CoS/w8Dj1qHBMAIdrkkcpcAlkYlUmRyWRxHAq7CNFLkApdyPkNaKW1mQumHEAGIgcTXCIYMvwuEOBbED7v9f1SSDRs2xhxQjz32OK7rt//grSPIkZvMQJD5I3GNKPq6tkdCJcn6AY5h6idmp1MYCUXoOvrGi5kCaZUm6+V0t8lJR66VNpRerONYpNPRSLDcqNyDHAuEnnS3XQ2zGJQwVVpnFvkseQjRdL9M+IvJ18daBCHODgIiBiPfkzXL2uOXit/8Z7/+fxDTCvh/r7eGiTULsxsAAAAASUVORK5CYII=;" parent="1" vertex="1">
          <mxGeometry x="520" y="51.5" width="92.27" height="68.5" as="geometry" />
        </mxCell>
        <mxCell id="aaeq4ovQwz0Z_cj152pu-18" value="" style="shape=image;verticalLabelPosition=bottom;labelBackgroundColor=#ffffff;verticalAlign=top;aspect=fixed;imageAspect=0;image=data:image/png,iVBORw0KGgoAAAANSUhEUgAAAG4AAAAmCAYAAAAlUK76AAAYNElEQVR4Ae1bd3yUVdYeZXUtwIIFFREQkJINYAKBJIQkJAESQgmElhDYANJBFkWKgAiKiwqIKyp9Iz2LVOkCoffeApgE6S0JmWTqO+87z/6eG8445jMC7uL3jze/O+/MLeeee57T7p2Jyel2wunW4HS7oBkuuAwdus7qguZ0ALoLhssO6DYAdmi2HFjN1wGjAIbTDLgd0O0FyMu+CbgNwA1oDg0shgHoqrqhuw3obh262wXdralqGDoMw/ijPqAMKFuTAy4471YNOlxKuDrchguW/DuAW8PZk4fRr2cSwgLrIiaiIeJjw5DQtik6xTXF9k2rAJcF0AmuE7rTAbuVIAtod59ugvcTcIZbwx/A/TalVcDZodGO4FBWp0EzNOiGBkN34MrFDEyeOB61qpRHk6C62LJmCazZWbiUvg+ZJ3Zizb9nI6RedQwf/AagrM8JS16OsjyrxQLNpUNzGYVV16HpGjTdCZfuKKwuDS6X64/6gDJQwJmdFmgwYLYXwFB/OvLM2di4fjVGDn0TfZI7Y970KTDyr8GZk4XMY2nIzjqEH0+kwX4zHW7zRQwb0A2jhvQG3Dbo9ny4HDboLiqA+66rBHQvi1PW5tbgdhtwu92e+qBus9Cli2t/8KfT6QQrizyFB03T7oaM4umSdxaO5XuLxaI+y4vQ+q3P4vZH+qYCpxUWzQan4YQbBjTNjqyMdHRNaIe3B76BccPfhGG+Crf5kgLsxM4VsF45iqun0nBm9ypkHN4IaDdR9cWnkfrNV4DbDsNJV+mGSzfg0vl0w2UYcKkYSkCdqv63rrK4jd1vOwVgtVpx584d5ObmKssXoRPIe9Gx2+1qDoEhcA6HQ1Xv9t8KGucVt74CjlZGwOge7bYCAC40DW+EIf17omPLKGxdvViBlnVkC1o3roVPR/bAhUNrcPtsGnLO70DOD7vx71n/QJ/EFmhQu7KyOpejAOa83HsCxwSoOObuZ8PFzb3fdgFJnhQ+hc75LPeiwzG0Ns4hv96Fc+9nD782prj1uY6poCCf+R9u3bgGuHXMnzMDfZO7YMncr9EqvCFmTxkP69XTGNm3Aw6sT4Ht8gHkZWzHxUMrcfPURjiuHsKdrP2A+QJGDErG7Svn72agtDZdWZtmuKH9gsW5isS44hh9WO02m025SLo4Cp/F+3mvdRmfWQg4AcjLy0NBQYFymfx8r/m/tZ9rmvJycuDWNJW7GzYrhr85AMMG9MH4d95Eu6hg7F67GNnn9iMvYx/ys/YosE5tTYF+bS8uHVqO9B2LlOXlXz6K5fO+wMGdG2E4CmApMCvGC0ErBK7wuPGTq/z/Bk5J/e4LwSMAFDzL/QiebpaFLpJF5qoP92Gx/xVwoIW7dJWzf5eaipdKl0SfhA5IjI1Cz3bNcWLbapgzDyJjz0qc37UUcGbgu9mjsWPpJ7hxbBUWTX0LsGdi6vv90TEmCCnTJ8NlyyPbyv87dQOFVYfTO6t0OX52HPDehGSav+ZG7kew3jR/6T3jmAhfnhzH9e8nxklSwrkS4wRIKsK9+L9X/y/xzDYW0+1LVwFNx84NG1CjfHk0rFUDQ3t1x5Qxw1C17ONI37kG145vQX7GbuDWUaR83B9xQS9i/dwxQN4xTBjUGt9+PQrLZn+ITctm4wmTCd8uTvl14FwO6C5qaWFWJq5GGP29gKMA6N4krombzMnJUcIRfop7chDdLfkniCxMcuT9vYC5V/+vrWuC5gYcToS/VhVje3bFoHYxWDPzcwz/W3vENfTBlkXTUJC5B1kHliP73CbcOr0e2cfXIe/0Jtw88R3c1/bjjWg/GBcOI/37b5EQXg8Nq7yA7Mx0wOmAoenQNZ7ndDgMJ5w8pGsuGFphfFC79YoTZJbAcfO/dWPFbbhoO9cQN3fjxg2MHTsWEyZMUE8CUHR80c/79+9XY0eNGoVp06Z5LJV7eugWB7uBWYMGYVjjAHzSNhyTOkfi8vr5OL50OrT0XbCd24HMfam4fHo1Lqevxe3zW3Fh+yrkn9wF25X9gH4JG6d+gG8G9cLF1NkYElQLg0N8MKZ9NMBjgWYATjecFhsc4D2NAWiAm+HBDWzZsgVPPfUUSpcujUceeQTr168XLNWTVkAAWUTItBIWOXuJm2Mbx4sFiAJQ4NLH9940xbo2b94Mk8mkeODz9u3bag4BkEJ6YpV8Dh8+XM0pUaIEnnnmGbUu187PZ8IHBSTnyPq0Tr4XDyO0uA/ZG/s4RpSWykUaQk/2bMKtPHR/qTxS20RjQesQ/L1aKWSmfApkpyNrbQoKTn+PO1mbcCNzHc4eXAxz5g7AdhM3Dm3Dtu9mYt2SKVj8j1Ewb16L1T0SMScyCIvaRqLFEybc3rcHsDlBqzY0DVa3VV2vuQmcTSWxWLduHR599FH8+c9/VkJYvXq1R3Nlw9ygbCw7O1ttghuiIPiUzZjNZo/Q2CeFc0lDBMB2CkhiEz+vXbsWjz32mOKD/BBQUQjyQXoyX5KQfv36KZ7/9Kc/KeBkPOlxTeGNa9OCZV3ZCz+TrvDP+VyD8zhG9s9x3grEz6a9c1Lw1esNsCc6FqtC62NBE38MqFQGia+Wxel/T4cjazcunlmFy+dXIzd9LQrSN2PfyjmYNn4w2sf64eMJ/dCxfRjWTZuIucFBWOZbF+ndkjCwTCksHTMWsNhUxkpLsxgFyuo0ndbC5aGAo4Y//vjjSghr1qxRDJNxbkq0kmNFcNyYFI7zFhjb2c+xFEjRPvbfvHnTo/VCKy0tTa1PXljpOlnEumVtsQbydu7cOXz//ffYuHGj8hRiSZxHvmk1HMcifFDxSIO8SR8VTpRB+FGTAKWIHC9yEGs2fdy1C6ZV88HBkAjsDw/DjpgoLGsdgxYlTMDRXcg9thkHtszCpfRVyE1fg5zja7BoygikfjUOn380AOPH9cKqzfNx4LsFGFf+ZRwLj8aRRhGYXbM2hoZFAAW8UtPhgA6Lywwn7GBaYnG6VWqyYcMG5Z7E4viZhRsQjaO2LV++HG+99RbatGmDhIQETJw4EVeuXPG4UXF5FNBnn32GpUuXYurUqaBQWEaPHo3k5GR0794du3fvVm18EYAOHjzoAe4vf/kLLl265Fmf43bt2gW60zlz5njcOQVPIKgIFy9eVDQJCJVpyZIl+Ne//gXGPwHjk08+QWJioqqMjxznrVyy3+nTp6NPnz7o2rUrunTpgjFjxqh1N23apOZwIVPPQD8sjYzAwbAIHA4IxrbXGyCtZTyGVayK7ePHAz+ewZm0hfh0TCJsN3YCuYewfuZ4DG7XGP06NMaiuR/BgZvoFFkfcyLCsSu4CU76hWJvWEt0KF8Jrrw7KrLRSToMMwx1pQ2Ynbyz+cni6G6o6XSd1FxuiIVCeeWVV/Dss896BMtYyLEU8Pvvv+8RDMf/8MMPnnEcQ8AZQ/neuxIAFtF0Wg37n376aTBmnT9/XvVTafz9/X829/jx40qA77zzjicmch4Lhc8rNNKi6+Vz1apVypWSb9IW7zJp0iQP7+Tj+vXreOmll362luyVdBhHxWWaRsdGIjW4Efb4B+F8YBROhrbE9vbJeM+/EWJfegWwmYHsH5C+cwnmfT4Ytss7AUsGYM4Ebqere8r+yW3x6pMmDA/wxbHuyThUqyEOBMYgtvRzyL9xHS7oMOsFcIOHWzsYavOd+i8Cx1hD4OiaWMksYw4ZZ6XVRUZGQoCuUKEC5s6dq4TGeZmZmUqYTz75pBrDuRK7OJ+CEOsWa+PkFStW/GwdRRBA1apVFQ+yPoERsMeNG6doUYHKli2rplCwtHIZLyDxc8mSJT3t5I9ttGxJvjp27KjayOPLL7+sLI4eon79+gpwjpcYb0qqWB67w2Jwtm4EMgJisC+sLbo98wo6NwhBVHAIWsc0Reb+NNw+shUfvdEGSSHVsHH+JKQt/gKpE4ajTgkTAkuVwtiEDmju+yKGvF4FR4KicCgoFtGln8P1C1nqLrTAzkzQotJJnt6sTt3jKqmFIkwCJ2X8+PFqI+ynJhIYuie6Q6bfsnkfHx9PFkhr4AaFHgE+fPiwilVffPGF0nYCSeEwPrFQQbZv345SpUqpuS+88IJaw9fXV2W7pEdwJMEQ4dGFsY+1XLlyij/SY1wkfa4jSrdz504FEPkmgOznejNnzlQ8EPCKFSsqWuSZCihxlfu+desWUlNTPSCb+r9eB7ubtMGZkDaYU7k2upcqh8FtOqBf/8GI794bf20QiHeHDsb0d9/GWw38MCqoHvxLmDAgIhCDGjfEyKgojG3WGkn1/NG7Rwyavvo09ofH4FDjNmhephwyz5xWd6EFllzAbQFchVdKDo1f+bhVvODmRDOZVUqpWbOm2gj7unXrpmLa0aNHVTzhJigwmUfAWOji2C40GVdEoykACoyKwDEpKSmqj1ZEwbKNfTyaBAUFqbFPPPEEXnzxRZVlkj7HUqB8fvjhh2oOaRI4Frr4a9euqXbSowIRYOGBY8RbsP/TTz9V8/gSHBys5nHNgIAAFavnzZuHjIwMNUaUlh9MyUEB2BCXiMnV6yKoXEl07dkJHQb0x+ux8QiITUB0Yi/4h4chvGZNzI9qj41hHZDWqS/6Pl8ZLUs/gy+798KkTj0Q51sHreIC0dq/AtbVb4ztgS0QV6ma+kacX+dYrHmAlgcYVhj8OUThpYlKw7kB2cy3336rmGRAp5azT2KFgCTxztv10HpoiVlZWWqOWBytjUWyOu94R+CYIDBj27t3r0fYjFdcl5WummNYCIpUfmZ8pZA5jmCzECBapOyHfTyrEmgWPmVf9Bhvv/22aucLkxJZV/YsT+5VDvkcaxrfszu+bBCJEdV8kZgQi4hBXVAhtgX8uvZFregk+DbrhKB2HRHu1xApTRJwovM7eL9yA4ysG4olQ99FZ78AdGvcFLEBDRAR8lck+lXFnuh2mFH+r0iuH6yEQpYN6IWnbnseXJqGvHwrrDa7ii3UcoJCzWUyIYUACQAUJt/TjXETjCncJIXAecziWI4dO+axKAqVFspC4bMKPfbNmDFD9fGFLpr0uA6tlTRFiMxIJa5xrKTx7733ngKOYxmTWLgGLU6A4762bt2q+vhCq3/++ec9tL/++mulVHLsWLhwoUqGZH1RTvJEmkx0WEy7UxbindJVsKZdTwRWqYzYN7qhWtuOeLVdd9TpNAj+7fvBr3UnNI9qhZ41gtGzsj8Sw5qif3Iy1RjTJ36MuQsXIDEpAZFVK2Kojw/OJvbB26YyWDD6Q9ic/GkE4CRwsMGw56nYZtP4PSCUqxQBEUAyxs2xVq9e3eMKBw8erBiW9J79UiQW0Ep//PFHJRTR1H379skw9aRlyHpfffWVx5qYnEg7n8wYBWSCyeMHCy2KFsr1vWMc3akUxiMKmnRo4fQGHC/HAm/geGSRIl6Bn2m1PCfSY9BtC29JSUlquAlmOwaUq445zTqilU8dxHdKRN2WCagV1wu+rfuhemQSguO7I65zDzSo4otWjZpg/7kz6DN6OKZ+NhnLVizD0C+moHZIIGIqVMbarr2xoXk82psehS09CzaXG/lwI9dpUW6Svxajm3QaUE9uSpiisMVVcqMDBgxQWiYx6fRpxsufbhEI2JQpU9S5ji6IVsHNitCooadOnfJYCOfS0kiPT8YPsZ5t27b9LOuj5QwZMsTDGzVfwOO6BJBZpfBepkwZTxwjcNLOJ89/3kWSIO6XMY5rEVS6biZJcsjmHK7Tt29fRY9KEBYWpkiZaDWzhgzFgKAQDGgWi64t2iO+Yz80iOyG8BYDUT+sG4KbJ6JhdByiuyXBp2ko+k4YhyVpW/D+hI+weNVqVImOQmjbOPy9SQw+8AtBvOkxTGgaq+4oLS6oA3eB5gQMO+B2IjfHDLvDgMViU7cOFLSk74sWLfLeI5577jnFNPsp8OjoaFDr/Pz8PH3ipjiRgVwshULjuU7iC/u9BTpr1izPWjw/sk9clABKoXFdia8Em4WKxeSE7QSCViRFgKNykCbvXwVsjqESiAKRhpTQ0FBFq1atWmjcuLG6bKhRo4YnLBBoKiqLyaE7AGsumvu8hjdbtESLOkHoEPcGwpp1R2B4MkKa9kR8tyGoExGDx3yq4gnfqjCVLo0ny5aDf0AwKtWsjQqBjVC2YlVUMT2O/n4NcXjmdAxuFYvMsz/A5uaPIfgFhAuaowDg7zetLgY9dclMFyUWxU3KzQnTYx5kr169+n8OwBxHYVHIrLxJERfKGw72i0vcs2ePskQmFbRIWgYFwDGzZ89WoBLYZcuWKVoEgpZKy5XDLoXI8ZzLZGXgwIFKeGIJwg/5ZaFn8I5Nsif28UhBOpzDdXizwkJFiIqKUu3sYyW43skUrU2U0GRj7HHl4/L+Hahd8mkkREYjJi4J9VokoVpoBzxesR6efc0fDZq3Qts+vfDWmDEYP3QcJg3/B9o0a4tKlWohqFELhDaOwbwZM7Fz/QrAfgMrln2DiZ9/Dt5/aFZ6SQLHc5xLfTvgzLbj9rVbHjcgzPL8QtchQuOm6C5OnjyJDz74AJ06dVJHAx7Ev/nmG8+Vk8QP3j6sXLlSuSAmH95JBWkyGWBs+/LLL8EjBGmzUNgjRoxQB/yRI0d67gYZz3hQ55mSQu7fvz+GDRum5vBarXfv3uqg/O6776o2vhBA3orwyovnNCYrwh/Xo9Xy5uaf//wnzpw5o3ikhVO5GNMmT56s4ievx3gA57cQvJJjoWxYTNcsOTAcZsBlxcYF81GjQmW0TOiBgDZdUb9dD1QNbYVlaQdwx2BqAeQX2KAuQKzA2SNnERUeg4jgGOzaegCr136HtL2bcejUblzJvYTm8e34DQ7ybuYzOyn8OkB3KUJbVm7CoL4DPRpG90YN4wYENPH1FB4ZFiGTcRGEaCD7ZBwFwEL3xDaO5Tihxz5qOOdI5Tgp8p50ZBz7pN07ieAaHCe8ETQZ5z2XexJ6pEV+2C8umXRYBBjZn8hC+Jd1TA43CdzNFNxAj14DEdQsDiGtE9GodReUrOiD5d/vgoVfqzExsDlRkG3mLxOQcS4Dr9fxg69PXZw4dgpLUlPVD17z8nOQbzWjfefO0HS3com60wWrhYdvN25euY4SpkfxiOkRlX7T2ujaaAXcDAsthZt5mJXCEPoUFKt89u6Ttt/7WZQnWZ/yMbEz32Ljd524Y9MRl9gDvkERaPu3fohql4SaAaEYNWFyIWh37xdFM3jYbdWqlbIU3mTHx8ejQ4cO4FmEZs7gTwCoRQII5zJzIlgS2wgasysZI2caYfRhPb3BKSok776Htf696BblScYr4PjCg7Dd5VZu7euUxahWpyFMj5ZEvdBovFY3EINHjIVNB8xWByxW291EwK2uoJj1MONbsGCBchHz589XaTL9uLgMmrcwwfX4FQhvAejLjxw54nEzHEfmCDTdijD6sJ4E55cAKq79YfHxIHTJmwKO7osfGKJz8m2FlmUAsxYuQ92gJjCVeAp1G4SozNB6979w6O4cditOnz6lAi2/O5KLV0XV60XAYxPB4Fq0LGGAMYE/ExDfznaCzM3w/e9Riwru91jzftYoji8FnK45lJAYWaxOFxx3Y1mBC8jXAJ7D2rTvjHOZF9RNB9NZh42/wzBwNv2MuqLij2zS09MVXARAkgAyx8UFFFqUBGi2STsnso8ukuNZGLTvZ3P/zRiuKfNFSPLZu0/afu9nUZ5kfcrHpNmtsFkLfxDDs5aDpwNmUAbA4xbfz5iTglmzC7/zupPL/8bRoTuZhbnVr6Jq166tzj1ylvIGhIvQgggYq/TxPduZoQlYHEtrZGWfMPqwngTnlwAqrv1h8fEgdMmbAk6dq/i9tK3wV7m8jrpTUJis8LqKse/K1evqvOKw20AL5f/BsToddlSqVEklG5IiyyGUaSx/TiALEQy+9wZRcXA3bSegBJNjOJblQTb0W8ZyLdaic4trLzru9/4sfCngzDm3Cs9XKm7ZCgXH85rVruKe3VEYb0YMH4aQRsFoHRuDPj2T0bZVC9Sv568OrCREwXsLXKyImyvaLyAXBYrjCKzERWH0YT+LAvCw17tf+sXxRTmZoPP/BlzqP1DdBv8TtfA3ffyS08kfrtI03Yb6t+K8Ozm4ce0Krl68gMs/ZoEWKJZCgRMsLna/jP0x7qcLgAeRhQKOsUolKExSNKeqBIGVlkGrEEA1px1OuxUOawE0h025yqLACXgEUOj88SyU5/9KDgq4QgAKQWDMIhBS5f5MWZHuugusA4aLYPKqpzAuSaJBxgicVKHzx/Mnmf4vZEHg/gMCjfuu3GCRLwAAAABJRU5ErkJggg==;" parent="1" vertex="1">
          <mxGeometry x="300" y="62.5" width="137.5" height="47.5" as="geometry" />
        </mxCell>
        <mxCell id="aaeq4ovQwz0Z_cj152pu-19" value="" style="verticalLabelPosition=bottom;html=1;verticalAlign=top;align=center;strokeColor=none;fillColor=#00BEF2;shape=mxgraph.azure.virtual_machine;" parent="1" vertex="1">
          <mxGeometry x="110" y="150" width="50" height="40" as="geometry" />
        </mxCell>
        <mxCell id="aaeq4ovQwz0Z_cj152pu-20" value="" style="shape=image;html=1;verticalAlign=top;verticalLabelPosition=bottom;labelBackgroundColor=#ffffff;imageAspect=0;aspect=fixed;image=https://cdn0.iconfinder.com/data/icons/kameleon-free-pack/110/Analytics-128.png" parent="1" vertex="1">
          <mxGeometry x="50" y="160" width="128" height="128" as="geometry" />
        </mxCell>
        <mxCell id="aaeq4ovQwz0Z_cj152pu-21" value="" style="shape=image;html=1;verticalAlign=top;verticalLabelPosition=bottom;labelBackgroundColor=#ffffff;imageAspect=0;aspect=fixed;image=https://cdn0.iconfinder.com/data/icons/kameleon-free-pack/110/Analytics-128.png" parent="1" vertex="1">
          <mxGeometry x="550" y="172" width="128" height="128" as="geometry" />
        </mxCell>
        <mxCell id="aaeq4ovQwz0Z_cj152pu-22" value="Azure Log Analytics" style="rounded=0;whiteSpace=wrap;html=1;" parent="1" vertex="1">
          <mxGeometry x="570" y="288" width="120" height="60" as="geometry" />
        </mxCell>
        <mxCell id="FmRb8qcYKDc-0SiINCno-1" value="" style="verticalLabelPosition=bottom;html=1;verticalAlign=top;align=center;strokeColor=none;fillColor=#00BEF2;shape=mxgraph.azure.storage_blob;" vertex="1" parent="1">
          <mxGeometry x="780" y="106" width="50" height="45" as="geometry" />
        </mxCell>
        <mxCell id="FmRb8qcYKDc-0SiINCno-2" value="Storage Blob" style="rounded=0;whiteSpace=wrap;html=1;" vertex="1" parent="1">
          <mxGeometry x="720" y="172" width="120" height="60" as="geometry" />
        </mxCell>
        <mxCell id="FmRb8qcYKDc-0SiINCno-3" value="" style="verticalLabelPosition=bottom;html=1;verticalAlign=top;align=center;strokeColor=none;fillColor=#00BEF2;shape=mxgraph.azure.access_control;" vertex="1" parent="1">
          <mxGeometry x="670" y="10" width="50" height="50" as="geometry" />
        </mxCell>
        <mxCell id="FmRb8qcYKDc-0SiINCno-4" value="Access Control" style="rounded=0;whiteSpace=wrap;html=1;" vertex="1" parent="1">
          <mxGeometry x="620" y="62.5" width="120" height="60" as="geometry" />
        </mxCell>
      </root>
    </mxGraphModel>
  </diagram>
</mxfile>
